<?xml version="1.0" encoding="UTF-8"?>
<svg id="Layer_2" data-name="Layer 2" xmlns="http://www.w3.org/2000/svg" viewBox="0 0 531.26 338.48">
  <defs>
    <style>
      .cls-1, .cls-2 {
        fill: #000;
      }

      .cls-1, .cls-3 {
        stroke-width: 0px;
      }

      .cls-2 {
        font-family: Manrope-Regular, Manrope;
        font-size: 32.68px;
        letter-spacing: .08em;
      }

      .cls-3 {
        fill: #45bbff;
      }
    </style>
  </defs>
  <g id="Layer_1-2" data-name="Layer 1">
    <g>
      <path class="cls-1" d="M23.35,148.61c-7.06-2.81-12.72-6.99-16.97-12.54-4.25-5.55-6.38-12.21-6.38-20h26.8c0,3.46,1.91,6.27,5.73,8.43,3.82,2.16,8.68,3.24,14.59,3.24s9.98-.97,13.08-2.92c3.1-1.95,4.65-4.43,4.65-7.46s-1.73-5.4-5.19-6.7c-3.46-1.3-9.01-2.59-16.64-3.89-8.5-1.44-15.56-3.06-21.18-4.86-5.62-1.8-10.48-4.9-14.59-9.29-4.11-4.39-6.16-10.62-6.16-18.7,0-6.2,1.98-11.78,5.94-16.75,3.96-4.97,9.33-8.86,16.1-11.67,6.77-2.81,14.34-4.21,22.7-4.21,12.97,0,23.56,3.13,31.78,9.4,8.21,6.27,12.32,14.95,12.32,26.05h-26.8c0-3.03-1.77-5.55-5.3-7.57-3.53-2.02-7.67-3.03-12.43-3.03s-8.47.94-11.56,2.81c-3.1,1.88-4.65,4.25-4.65,7.13,0,2.59,1.65,4.54,4.97,5.84,3.31,1.3,8.57,2.52,15.78,3.67,8.5,1.44,15.63,3.06,21.4,4.86,5.76,1.8,10.81,4.9,15.13,9.29,4.32,4.4,6.48,10.48,6.48,18.27.14,11.53-4.07,20.21-12.65,26.05-8.58,5.84-19.85,8.75-33.83,8.75-8.36,0-16.07-1.41-23.13-4.22Z"/>
      <path class="cls-1" d="M140.51,70.47v29.61c0,8.65,1.51,14.84,4.54,18.59,3.03,3.75,8,5.62,14.92,5.62v27.45c-14.56,0-26.12-4.25-34.69-12.75-8.58-8.5-12.86-21.47-12.86-38.91v-29.61h-16v-27.45h16V0h28.1v43.02h19.45v27.45h-19.45Z"/>
      <path class="cls-1" d="M293.98,94.25c0-17.15,4.25-30.05,12.75-38.69,8.5-8.65,19.67-12.97,33.51-12.97h1.3v27.45h-1.08c-6.2,0-10.81,1.95-13.83,5.84s-4.54,10.02-4.54,18.37v56.85h-28.1v-56.85Z"/>
      <path class="cls-1" d="M395.57,70.47v29.61c0,8.65,1.51,14.84,4.54,18.59,3.03,3.75,8,5.62,14.92,5.62v27.45c-14.56,0-26.12-4.25-34.69-12.75-8.58-8.5-12.86-21.47-12.86-38.91v-29.61h-16v-27.45h16V0h28.1v43.02h19.46v27.45h-19.46Z"/>
      <path class="cls-1" d="M333.12,191.98c-8.69-8.9-20.27-13.35-34.74-13.35-7.67,0-14.19,1.81-19.54,5.43v-32.96h.02v-54.04c0-10.09-2.49-19.42-7.46-27.99-4.97-8.57-11.71-15.35-20.21-20.32-8.5-4.97-17.8-7.46-27.89-7.46s-19.38,2.49-27.89,7.46c-8.5,4.97-15.28,11.75-20.32,20.32-5.05,8.58-7.57,17.91-7.57,27.99s2.52,19.42,7.57,27.99c5.04,8.58,11.81,15.35,20.32,20.32,8.5,4.97,17.8,7.46,27.89,7.46,6.05,0,11.74-1.3,17.08-3.89,5.19-2.52,8.59-5.53,10.23-9.01v149.01h28.23v-57.11c0-8.83,1.55-15.31,4.67-19.43,3.11-4.13,8.07-6.19,14.87-6.19s11.76,2.06,14.88,6.19c3.11,4.13,4.67,10.61,4.67,19.43v57.11h28.23v-57.11c0-17.66-4.34-30.94-13.03-39.85Z"/>
      <path class="cls-3" d="M252.36,81.31l-32.05-18.5c-12.12-7-27.28,1.75-27.28,15.75v37.01c0,14,15.15,22.75,27.28,15.75l32.05-18.5c12.12-7,12.12-24.5,0-31.5Z"/>
      <path class="cls-1" d="M523.66,205.79c-5.07-8.61-11.87-15.42-20.41-20.41-8.54-4.99-17.88-7.49-28.01-7.49s-19.07,2.58-26.57,7.71v39.46c1.27-4.31,3.54-8.13,6.81-11.45,5.35-5.43,12.01-8.14,19.98-8.14s14.55,2.71,19.76,8.14c5.21,5.43,7.82,12.2,7.82,20.3s-2.61,14.87-7.82,20.3c-5.21,5.43-11.8,8.14-19.76,8.14s-14.62-2.71-19.98-8.14c-3.45-3.5-5.79-7.56-7.01-12.17-.89,13.8-4.78,24.73-11.61,32.59,3.11,2.96,6.55,5.57,10.37,7.8,8.54,4.99,17.88,7.49,28.01,7.49s19.47-2.5,28.01-7.49c8.54-5,15.34-11.8,20.41-20.41,5.07-8.61,7.6-17.99,7.6-28.12s-2.53-19.51-7.6-28.12Z"/>
      <path class="cls-1" d="M445.67,42.93v192.81c0,17.66-4.34,30.94-13.03,39.85-8.69,8.9-20.27,13.35-34.74,13.35s-26.06-4.45-34.74-13.35c-8.69-8.9-13.03-22.18-13.03-39.85v-57.11h28.23v57.11c0,8.83,1.55,15.31,4.67,19.43,3.11,4.13,8.07,6.19,14.87,6.19s11.76-2.06,14.88-6.19c3.11-4.13,4.67-10.6,4.67-19.43V42.93h28.23Z"/>
    </g>
    <text class="cls-2" transform="translate(250.93 329.49)"><tspan x="0" y="0">Setup with Ease</tspan></text>
  </g>
</svg>